<?xml version="1.0" encoding="utf-8"?>
<!-- Generator: Adobe Illustrator 16.0.0, SVG Export Plug-In . SVG Version: 6.00 Build 0)  -->
<!DOCTYPE svg PUBLIC "-//W3C//DTD SVG 1.1//EN" "http://www.w3.org/Graphics/SVG/1.1/DTD/svg11.dtd">
<svg version="1.1" id="Capa_1" xmlns="http://www.w3.org/2000/svg" xmlns:xlink="http://www.w3.org/1999/xlink" x="0px" y="0px"
	 width="578px" height="236px" viewBox="-33 0 578 236" enable-background="new -33 0 578 236" xml:space="preserve">
<rect x="-105.507" y="-63.5" display="none" stroke="#FFFFFF" stroke-miterlimit="10" width="652" height="398"/>
<g>
	<path fill="#FFFFFF" d="M29.96,135.002c0.306-0.367,0.658-0.598,1.058-0.689c0.398-0.092,0.736-0.061,1.012,0.092
		c0.276,0.154,0.444,0.385,0.506,0.69c0.06,0.308-0.032,0.644-0.276,1.012c-1.104,1.534-2.592,3.649-4.462,6.349
		c-1.872,2.699-4.034,5.627-6.486,8.785c-2.454,3.16-5.122,6.364-8.004,9.614c-2.884,3.252-5.874,6.196-8.97,8.832
		c-3.098,2.638-6.256,4.8-9.476,6.486c-3.22,1.688-6.394,2.53-9.522,2.53c-1.288,0-2.714-0.276-4.278-0.828
		c-1.564-0.553-3.021-1.426-4.37-2.623c-1.35-1.195-2.47-2.744-3.358-4.646c-0.89-1.9-1.334-4.2-1.334-6.899
		c0-2.269,0.444-4.83,1.334-7.683c0.888-2.852,2.146-5.75,3.772-8.694c1.625-2.943,3.588-5.826,5.888-8.647
		c2.3-2.82,4.844-5.32,7.636-7.498c2.791-2.177,5.78-3.94,8.97-5.29c3.188-1.348,6.532-2.023,10.028-2.023
		c3.188,0,5.336,0.613,6.44,1.84c1.104,1.228,1.656,2.821,1.656,4.783c0,2.822-0.768,5.506-2.3,8.051
		c-1.534,2.545-3.649,4.815-6.348,6.808c-2.7,1.994-5.858,3.604-9.476,4.83c-3.62,1.228-7.484,1.901-11.592,2.024
		c-1.228,2.821-2.193,5.582-2.898,8.279c-0.706,2.699-1.058,5.092-1.058,7.176c0,2.086,0.429,3.758,1.288,5.015
		c0.858,1.258,2.238,1.886,4.14,1.886c1.9,0,4.108-0.828,6.624-2.484c2.514-1.655,5.136-3.756,7.866-6.301
		c2.728-2.545,5.458-5.367,8.188-8.465c2.728-3.096,5.274-6.117,7.636-9.062c2.36-2.943,4.446-5.611,6.256-8.004
		C27.858,137.854,29.162,136.106,29.96,135.002z M10.824,128.562c-1.84,0-3.696,0.525-5.566,1.571
		c-1.872,1.048-3.696,2.45-5.474,4.206c-1.78,1.757-3.482,3.807-5.106,6.148c-1.626,2.342-3.114,4.775-4.462,7.303
		c3.128-0.061,5.98-0.586,8.556-1.572c2.576-0.985,4.83-2.201,6.762-3.65c1.932-1.449,3.51-2.99,4.738-4.623
		c1.226-1.633,2.084-3.143,2.576-4.529c0.49-1.387,0.566-2.542,0.23-3.467C12.74,129.025,11.988,128.562,10.824,128.562z"/>
	<path fill="#FFFFFF" d="M35.847,170.883c1.042,0,2.438-0.721,4.186-2.162c1.748-1.44,3.68-3.28,5.796-5.52
		c2.116-2.238,4.309-4.723,6.578-7.453c2.269-2.729,4.416-5.412,6.44-8.049c2.024-2.637,3.848-5.045,5.474-7.223
		c1.625-2.176,2.866-3.818,3.726-4.922c0.306-0.428,0.644-0.674,1.012-0.736c0.368-0.061,0.69-0.029,0.966,0.092
		c0.276,0.124,0.46,0.354,0.552,0.69c0.092,0.338,0.015,0.69-0.23,1.058c-1.104,1.534-2.607,3.65-4.508,6.349
		c-1.902,2.699-4.018,5.598-6.348,8.694c-2.332,3.098-4.815,6.256-7.452,9.476c-2.638,3.22-5.244,6.118-7.82,8.694
		c-2.576,2.576-5.03,4.691-7.36,6.348c-2.332,1.656-4.386,2.484-6.164,2.484c-1.963,0-3.45-0.461-4.462-1.381
		c-1.012-0.92-1.734-1.932-2.162-3.035c-0.492-1.289-0.736-2.791-0.736-4.508c0-3.129,0.521-5.919,1.564-8.373
		c1.042-2.452,2.192-4.752,3.45-6.899c1.257-2.146,2.407-4.232,3.45-6.257c1.042-2.023,1.564-4.17,1.564-6.439
		c0-0.857-0.262-1.564-0.782-2.115c-0.522-0.553-1.182-1.104-1.978-1.656c-0.798-0.553-1.642-1.119-2.53-1.703
		c-0.89-0.582-1.733-1.317-2.53-2.207c-0.798-0.889-1.458-1.979-1.978-3.266c-0.522-1.289-0.782-2.913-0.782-4.877
		c0-2.023,0.414-3.924,1.242-5.703s1.916-3.327,3.266-4.646c1.348-1.318,2.882-2.346,4.6-3.082c1.717-0.736,3.465-1.104,5.244-1.104
		c0.858,0,1.564,0.2,2.116,0.598c0.552,0.399,0.828,0.844,0.828,1.334c0,0.736-0.337,1.549-1.012,2.438
		c-0.676,0.89-1.426,1.886-2.254,2.99c-0.828,1.104-1.58,2.361-2.254,3.771c-0.676,1.412-1.012,3.037-1.012,4.877
		s0.26,3.344,0.782,4.508c0.521,1.166,1.181,2.115,1.978,2.852c0.796,0.736,1.67,1.334,2.622,1.795
		c0.95,0.459,1.824,0.951,2.622,1.471c0.796,0.522,1.456,1.137,1.978,1.841c0.521,0.706,0.782,1.642,0.782,2.806
		c0,1.044-0.414,2.454-1.242,4.232c-0.828,1.779-1.81,3.711-2.944,5.796c-1.136,2.085-2.27,4.202-3.404,6.348
		c-1.135,2.147-2.024,4.095-2.668,5.843s-0.89,3.174-0.736,4.277C33.469,170.33,34.313,170.883,35.847,170.883z"/>
	<path fill="#FFFFFF" d="M74.117,170.883c1.042,0,2.438-0.721,4.186-2.162c1.748-1.44,3.68-3.28,5.796-5.52
		c2.116-2.238,4.309-4.723,6.578-7.453c2.269-2.729,4.416-5.412,6.44-8.049c2.024-2.637,3.848-5.045,5.474-7.223
		c1.625-2.176,2.866-3.818,3.726-4.922c0.306-0.428,0.644-0.674,1.012-0.736c0.368-0.061,0.69-0.029,0.966,0.092
		c0.276,0.124,0.46,0.354,0.552,0.69c0.092,0.338,0.015,0.69-0.23,1.058c-1.104,1.534-2.607,3.65-4.508,6.349
		c-1.902,2.699-4.018,5.598-6.348,8.694c-2.332,3.098-4.815,6.256-7.452,9.476c-2.638,3.22-5.244,6.118-7.82,8.694
		c-2.576,2.576-5.03,4.691-7.36,6.348c-2.332,1.656-4.386,2.484-6.164,2.484c-1.963,0-3.45-0.461-4.462-1.381
		c-1.012-0.92-1.734-1.932-2.162-3.035c-0.492-1.289-0.736-2.791-0.736-4.508c0-3.129,0.521-5.919,1.564-8.373
		c1.042-2.452,2.192-4.752,3.45-6.899c1.257-2.146,2.407-4.232,3.45-6.257c1.042-2.023,1.564-4.17,1.564-6.439
		c0-0.857-0.262-1.564-0.782-2.115c-0.522-0.553-1.182-1.104-1.978-1.656c-0.798-0.553-1.642-1.119-2.53-1.703
		c-0.89-0.582-1.733-1.317-2.53-2.207c-0.798-0.889-1.458-1.979-1.978-3.266c-0.522-1.289-0.782-2.913-0.782-4.877
		c0-2.023,0.414-3.924,1.242-5.703s1.916-3.327,3.266-4.646c1.348-1.318,2.882-2.346,4.6-3.082c1.717-0.736,3.465-1.104,5.244-1.104
		c0.858,0,1.564,0.2,2.116,0.598c0.552,0.399,0.828,0.844,0.828,1.334c0,0.736-0.337,1.549-1.012,2.438
		c-0.676,0.89-1.426,1.886-2.254,2.99c-0.828,1.104-1.58,2.361-2.254,3.771c-0.676,1.412-1.012,3.037-1.012,4.877
		s0.26,3.344,0.782,4.508c0.521,1.166,1.181,2.115,1.978,2.852c0.796,0.736,1.67,1.334,2.622,1.795
		c0.95,0.459,1.824,0.951,2.622,1.471c0.796,0.522,1.456,1.137,1.978,1.841c0.521,0.706,0.782,1.642,0.782,2.806
		c0,1.044-0.414,2.454-1.242,4.232c-0.828,1.779-1.81,3.711-2.944,5.796c-1.136,2.085-2.27,4.202-3.404,6.348
		c-1.135,2.147-2.024,4.095-2.668,5.843s-0.89,3.174-0.736,4.277C71.74,170.33,72.583,170.883,74.117,170.883z"/>
	<path fill="#FFFFFF" d="M151.672,135.555c0.306-0.428,0.644-0.674,1.012-0.736c0.368-0.061,0.69-0.029,0.966,0.092
		c0.276,0.124,0.46,0.354,0.552,0.69c0.092,0.338,0.015,0.69-0.23,1.058c-1.228,1.78-2.653,3.588-4.278,5.428
		c-1.626,1.841-3.404,3.635-5.336,5.383s-4.002,3.344-6.21,4.783c-2.208,1.442-4.54,2.623-6.992,3.543
		c-1.84,2.943-3.91,5.796-6.21,8.556c-2.3,2.761-4.692,5.198-7.176,7.313c-2.484,2.117-5.014,3.818-7.59,5.106
		c-2.576,1.288-5.122,1.933-7.636,1.933c-0.86,0-1.886-0.092-3.082-0.276c-1.196-0.185-2.346-0.69-3.45-1.519
		s-2.056-2.069-2.852-3.726c-0.798-1.655-1.196-3.956-1.196-6.899c0-1.9,0.26-4.033,0.782-6.395c0.52-2.36,1.21-4.752,2.07-7.176
		c0.858-2.422,1.84-4.769,2.944-7.038c1.104-2.269,2.254-4.292,3.45-6.072c1.196-1.778,2.392-3.204,3.588-4.278
		c1.196-1.072,2.284-1.609,3.266-1.609c1.164,0,2.1,0.046,2.806,0.138c0.705,0.093,1.303,0.2,1.794,0.322
		c1.778-3.251,4.154-5.78,7.13-7.591c2.974-1.808,6.302-2.713,9.982-2.713c1.962,0,3.572,0.338,4.83,1.012
		c1.256,0.676,2.254,1.518,2.99,2.529c0.736,1.013,1.256,2.148,1.564,3.404c0.306,1.258,0.46,2.438,0.46,3.542
		c0,2.024-0.491,4.462-1.472,7.314c-0.982,2.852-2.3,5.874-3.956,9.062c1.9-0.857,3.71-1.9,5.428-3.128
		c1.717-1.226,3.327-2.53,4.83-3.909c1.502-1.381,2.852-2.775,4.048-4.187C149.694,138.101,150.752,136.782,151.672,135.555z
		 M106.316,172.263c1.594,0,3.22-0.398,4.876-1.196c1.656-0.797,3.28-1.87,4.876-3.22c1.594-1.349,3.158-2.913,4.692-4.692
		c1.533-1.777,3.004-3.68,4.416-5.703c-1.288,0.184-2.638,0.275-4.048,0.275c-2.454,0-4.432-0.352-5.934-1.059
		c-1.503-0.703-2.654-1.609-3.45-2.713c-0.797-1.104-1.334-2.361-1.61-3.772c-0.276-1.41-0.414-2.853-0.414-4.324
		c0-0.122,0.015-0.276,0.046-0.46c0.03-0.184,0.046-0.336,0.046-0.46c-0.982,1.534-1.978,3.175-2.99,4.923
		c-1.012,1.747-1.948,3.541-2.806,5.381c-0.859,1.84-1.564,3.681-2.116,5.521c-0.552,1.84-0.828,3.62-0.828,5.336
		c0,1.166,0.168,2.132,0.506,2.897c0.336,0.768,0.767,1.396,1.288,1.887c0.521,0.491,1.088,0.844,1.702,1.058
		C105.18,172.156,105.764,172.263,106.316,172.263z M128.212,152.482c2.084-3.557,3.74-6.992,4.968-10.304
		c1.227-3.312,1.84-5.948,1.84-7.912c0-1.41-0.322-2.53-0.966-3.358s-1.702-1.242-3.174-1.242c-1.78,0-3.481,0.538-5.106,1.611
		c-1.626,1.073-3.052,2.391-4.278,3.955c-1.228,1.564-2.194,3.221-2.898,4.969c-0.706,1.748-1.058,3.327-1.058,4.737
		c0,1.411,0.23,2.608,0.69,3.589s1.058,1.793,1.794,2.438c0.736,0.644,1.548,1.104,2.438,1.38c0.888,0.276,1.732,0.414,2.53,0.414
		C126.096,152.759,127.168,152.666,128.212,152.482z"/>
	<path fill="#FFFFFF" d="M158.202,170.883c1.042,0,2.438-0.721,4.186-2.162c1.748-1.44,3.68-3.28,5.796-5.52
		c2.116-2.238,4.309-4.723,6.578-7.453c2.269-2.729,4.416-5.412,6.44-8.049c2.024-2.637,3.848-5.045,5.475-7.223
		c1.624-2.176,2.865-3.818,3.726-4.922c0.306-0.428,0.644-0.674,1.013-0.736c0.367-0.061,0.689-0.029,0.965,0.092
		c0.276,0.124,0.461,0.354,0.553,0.69c0.092,0.338,0.014,0.69-0.23,1.058c-1.104,1.534-2.607,3.65-4.508,6.349
		c-1.902,2.699-4.018,5.598-6.348,8.694c-2.332,3.098-4.815,6.256-7.452,9.476c-2.638,3.22-5.244,6.118-7.82,8.694
		c-2.576,2.576-5.03,4.691-7.36,6.348c-2.332,1.656-4.386,2.484-6.164,2.484c-1.963,0-3.45-0.461-4.462-1.381
		c-1.012-0.92-1.734-1.932-2.162-3.035c-0.492-1.289-0.736-2.791-0.736-4.508c0-3.129,0.521-5.919,1.564-8.373
		c1.042-2.452,2.192-4.752,3.45-6.899c1.257-2.146,2.407-4.232,3.45-6.257c1.042-2.023,1.564-4.17,1.564-6.439
		c0-0.857-0.262-1.564-0.782-2.115c-0.522-0.553-1.182-1.104-1.978-1.656c-0.798-0.553-1.642-1.119-2.53-1.703
		c-0.89-0.582-1.733-1.317-2.53-2.207c-0.798-0.889-1.458-1.979-1.978-3.266c-0.522-1.289-0.782-2.913-0.782-4.877
		c0-2.023,0.414-3.924,1.242-5.703s1.916-3.327,3.266-4.646c1.348-1.318,2.882-2.346,4.6-3.082c1.717-0.736,3.465-1.104,5.244-1.104
		c0.858,0,1.564,0.2,2.116,0.598c0.552,0.399,0.828,0.844,0.828,1.334c0,0.736-0.337,1.549-1.012,2.438
		c-0.676,0.89-1.426,1.886-2.254,2.99c-0.828,1.104-1.58,2.361-2.254,3.771c-0.676,1.412-1.012,3.037-1.012,4.877
		s0.26,3.344,0.782,4.508c0.521,1.166,1.181,2.115,1.978,2.852c0.796,0.736,1.67,1.334,2.622,1.795
		c0.95,0.459,1.824,0.951,2.622,1.471c0.796,0.522,1.456,1.137,1.978,1.841c0.521,0.706,0.782,1.642,0.782,2.806
		c0,1.044-0.414,2.454-1.242,4.232c-0.828,1.779-1.81,3.711-2.944,5.796c-1.136,2.085-2.27,4.202-3.404,6.348
		c-1.135,2.147-2.024,4.095-2.668,5.843s-0.89,3.174-0.736,4.277C155.825,170.33,156.668,170.883,158.202,170.883z"/>
	<path fill="#FFFFFF" d="M375.772,144.019c0.429,0,0.889,0.17,1.38,0.506c0.49,0.338,0.935,0.752,1.334,1.242
		c0.398,0.491,0.736,1.013,1.013,1.563c0.275,0.553,0.414,1.074,0.414,1.564c0,0.613-1.182,1.074-3.542,1.38
		c-2.362,0.308-5.322,0.522-8.879,0.644c-2.943,4.785-5.382,9.187-7.313,13.203c-1.932,4.018-2.898,7.313-2.898,9.89
		c0,0.491-0.016,0.997-0.046,1.519c-0.031,0.521-0.107,1.027-0.229,1.518c-0.124,0.491-0.308,0.89-0.552,1.195
		c-0.246,0.309-0.614,0.461-1.104,0.461c-0.736,0-1.458-0.261-2.162-0.783c-0.706-0.52-1.334-1.195-1.886-2.023
		s-0.998-1.794-1.334-2.898c-0.338-1.104-0.506-2.268-0.506-3.496c0-2.391,0.704-5.151,2.115-8.279s3.281-6.5,5.612-10.12
		c-3.006,0-5.996-0.03-8.97-0.092c-2.976-0.061-5.735-0.106-8.28-0.138c-2.546-0.031-4.754-0.076-6.624-0.139
		c-1.871-0.061-3.174-0.092-3.91-0.092h-0.184c-0.184,0-0.399-0.061-0.645-0.184c-0.675-0.185-1.396-0.566-2.161-1.15
		c-0.768-0.582-1.15-1.395-1.15-2.438c0-0.429,0.782-1.473,2.346-3.129c1.564-1.656,3.648-3.68,6.256-6.072
		c2.606-2.391,5.597-5.043,8.971-7.957c3.372-2.912,6.884-5.842,10.534-8.786c3.647-2.944,7.298-5.811,10.947-8.602
		c3.648-2.79,7.038-5.258,10.166-7.406c3.128-2.146,5.872-3.878,8.234-5.198c2.36-1.318,4.062-1.978,5.105-1.978
		c1.288,0,2.36,0.338,3.221,1.012c0.428-0.612,1.058-1.21,1.886-1.794c0.828-0.582,1.656-0.92,2.484-1.012
		c0.827-0.092,1.548,0.124,2.161,0.644c0.613,0.521,0.921,1.549,0.921,3.082c0,1.595-0.828,3.956-2.484,7.084
		s-3.772,6.686-6.348,10.672c-2.576,3.987-5.444,8.266-8.603,12.834c-3.159,4.569-6.21,9.124-9.154,13.662
		c1.104,0.062,1.993,0.092,2.668,0.092S375.649,144.019,375.772,144.019z M362.064,143.834c2.576-3.68,5.274-7.373,8.097-11.086
		c2.82-3.709,5.52-7.297,8.096-10.764c2.576-3.465,4.86-6.716,6.854-9.752c1.992-3.036,3.45-5.718,4.37-8.05
		c-1.35,0.184-3.205,0.998-5.565,2.438c-2.362,1.442-5.046,3.251-8.051,5.428c-3.006,2.178-6.21,4.646-9.613,7.406
		c-3.404,2.76-6.794,5.551-10.166,8.371c-3.374,2.822-6.61,5.598-9.706,8.326c-3.098,2.73-5.874,5.138-8.326,7.223
		c1.532,0,3.28,0.016,5.244,0.045c1.962,0.032,4.002,0.078,6.118,0.139c2.115,0.062,4.246,0.107,6.394,0.139
		C357.955,143.729,360.041,143.774,362.064,143.834z"/>
	<path fill="#FFFFFF" d="M461.516,114.303c0.49-0.122,1.135-0.168,1.933-0.138c0.796,0.032,1.563,0.17,2.3,0.414
		c0.736,0.246,1.38,0.598,1.932,1.058c0.553,0.46,0.828,1.058,0.828,1.794c0,4.601-0.905,9.323-2.714,14.168
		c-1.81,4.846-4.232,9.538-7.268,14.076c-3.036,4.54-6.532,8.817-10.488,12.834c-3.956,4.018-8.066,7.514-12.328,10.487
		c-4.264,2.977-8.525,5.336-12.788,7.084c-4.264,1.748-8.234,2.623-11.914,2.623c-3.067,0-5.72-0.566-7.958-1.703
		c-2.239-1.134-4.079-2.668-5.52-4.6c-1.442-1.932-2.516-4.17-3.221-6.716c-0.705-2.544-1.058-5.228-1.058-8.05
		c0-3.25,0.582-7.038,1.748-11.362c1.164-4.323,2.836-8.771,5.014-13.34c2.177-4.568,4.845-9.076,8.004-13.524
		c3.158-4.446,6.746-8.402,10.765-11.868c4.016-3.464,8.418-6.271,13.202-8.418c4.783-2.146,9.904-3.22,15.363-3.22
		c2.33,0,4.385,0.567,6.164,1.702c1.778,1.136,3.267,2.592,4.462,4.37c1.196,1.78,2.085,3.742,2.668,5.888
		c0.583,2.147,0.874,4.232,0.874,6.256V114.303z M409.352,172.17c3.986,0,7.942-0.965,11.868-2.897
		c3.925-1.932,7.666-4.462,11.225-7.59c3.556-3.128,6.854-6.67,9.89-10.626s5.704-7.926,8.004-11.914
		c2.3-3.986,4.124-7.82,5.474-11.5c1.349-3.68,2.116-6.809,2.301-9.384c-0.736-0.736-1.104-1.594-1.104-2.576
		c0-0.736-0.092-1.794-0.275-3.174c-0.185-1.38-0.538-2.76-1.059-4.14c-0.521-1.38-1.288-2.59-2.3-3.634
		c-1.012-1.042-2.346-1.564-4.002-1.564c-3.252,0-6.686,0.966-10.304,2.898c-3.62,1.932-7.177,4.508-10.673,7.728
		c-3.495,3.22-6.854,6.885-10.073,10.994c-3.221,4.109-6.042,8.311-8.464,12.604c-2.424,4.294-4.356,8.541-5.797,12.742
		c-1.441,4.201-2.161,7.958-2.161,11.27c0,1.473,0.105,2.868,0.321,4.187c0.215,1.319,0.612,2.47,1.196,3.45
		c0.582,0.981,1.349,1.748,2.3,2.3C406.668,171.895,407.88,172.17,409.352,172.17z"/>
	<path fill="#FFFFFF" d="M516.807,144.019c0.429,0,0.889,0.17,1.38,0.506c0.49,0.338,0.935,0.752,1.334,1.242
		c0.398,0.491,0.736,1.013,1.013,1.563c0.275,0.553,0.414,1.074,0.414,1.564c0,0.613-1.182,1.074-3.542,1.38
		c-2.362,0.308-5.322,0.522-8.879,0.644c-2.943,4.785-5.382,9.187-7.313,13.203c-1.932,4.018-2.898,7.313-2.898,9.89
		c0,0.491-0.016,0.997-0.046,1.519c-0.031,0.521-0.107,1.027-0.229,1.518c-0.124,0.491-0.308,0.89-0.552,1.195
		c-0.246,0.309-0.614,0.461-1.104,0.461c-0.736,0-1.458-0.261-2.162-0.783c-0.706-0.52-1.334-1.195-1.886-2.023
		s-0.998-1.794-1.334-2.898c-0.338-1.104-0.506-2.268-0.506-3.496c0-2.391,0.704-5.151,2.115-8.279s3.281-6.5,5.612-10.12
		c-3.006,0-5.996-0.03-8.97-0.092c-2.976-0.061-5.735-0.106-8.28-0.138c-2.546-0.031-4.754-0.076-6.624-0.139
		c-1.871-0.061-3.174-0.092-3.91-0.092h-0.184c-0.184,0-0.399-0.061-0.645-0.184c-0.675-0.185-1.396-0.566-2.161-1.15
		c-0.768-0.582-1.15-1.395-1.15-2.438c0-0.429,0.782-1.473,2.346-3.129c1.564-1.656,3.648-3.68,6.256-6.072
		c2.606-2.391,5.597-5.043,8.971-7.957c3.372-2.912,6.884-5.842,10.534-8.786c3.647-2.944,7.298-5.811,10.947-8.602
		c3.648-2.79,7.038-5.258,10.166-7.406c3.128-2.146,5.872-3.878,8.234-5.198c2.36-1.318,4.062-1.978,5.105-1.978
		c1.288,0,2.36,0.338,3.221,1.012c0.428-0.612,1.058-1.21,1.886-1.794c0.828-0.582,1.656-0.92,2.484-1.012
		c0.827-0.092,1.548,0.124,2.161,0.644c0.613,0.521,0.921,1.549,0.921,3.082c0,1.595-0.828,3.956-2.484,7.084
		s-3.772,6.686-6.348,10.672c-2.576,3.987-5.444,8.266-8.603,12.834c-3.159,4.569-6.21,9.124-9.154,13.662
		c1.104,0.062,1.993,0.092,2.668,0.092S516.684,144.019,516.807,144.019z M503.099,143.834c2.576-3.68,5.274-7.373,8.097-11.086
		c2.82-3.709,5.52-7.297,8.096-10.764c2.576-3.465,4.86-6.716,6.854-9.752c1.992-3.036,3.45-5.718,4.37-8.05
		c-1.35,0.184-3.205,0.998-5.565,2.438c-2.362,1.442-5.046,3.251-8.051,5.428c-3.006,2.178-6.21,4.646-9.613,7.406
		c-3.404,2.76-6.794,5.551-10.166,8.371c-3.374,2.822-6.61,5.598-9.706,8.326c-3.098,2.73-5.874,5.138-8.326,7.223
		c1.532,0,3.28,0.016,5.244,0.045c1.962,0.032,4.002,0.078,6.118,0.139c2.115,0.062,4.246,0.107,6.394,0.139
		C498.989,143.729,501.075,143.774,503.099,143.834z"/>
</g>
<g>
	<path fill="#C73327" d="M396.843,41.259c-38.134,0-55.177,31.292-60.372,41.547c-14.2,28.019-16.557,45.18-36.01,64.825
		c-14.02,14.156-27.611,21.042-27.611,21.042c47.064-10.405,64.974-64.595,73.689-83.893c7.402-16.4,21.383-38.545,50.493-38.545
		c24.317,0,40.961,18.099,40.961,40.018c0,24.135-20.51,48.759-42.614,48.759c-17.322,0-31.336-13.07-31.336-30.944
		c0-25.057,22.64-30.958,22.64-30.958S362.2,78.274,362.2,104.068c0,18.235,14.465,32.977,33.262,32.977
		c23.207,0,44.539-23.584,44.539-50.295C439.999,63.168,421.167,41.259,396.843,41.259z"/>
	<path fill="#C73327" d="M334.465,9.806c-31.844,3.809-49.256,38.004-49.256,38.004c13.197-16.26,24.635-16.511,24.635-16.511
		c-4.373,5.032-15.207,20.841-12.404,71.084c2.797,50.25-44.312,70.501-44.312,70.501c68.793-25.795,59.722-73.865,59.722-73.865
		C302.812,15.456,334.465,9.806,334.465,9.806z"/>
	<path fill="#C73327" d="M266.824,99.818c18.812,30.624-8.024,60.497-8.024,60.497c30.86-28.479,30.61-50.459,16.745-74.08
		c-13.036-22.184-15.418-34.214-15.658-35.589c-0.049,0.672-0.883,5.318-22.205,25.012c-28.956,26.745-12.57,52.619-12.57,52.619
		c-7.461-25.604,22.957-53.941,27.287-57.51C252.002,72.1,253.145,77.573,266.824,99.818z"/>
	<path fill="#C73327" d="M217.457,144.436c-17.125-31.5-3.644-56.176-15.162-67.396c-10.215-9.95-22.927,8.796-22.927,8.796
		s22.335-24.145,20.02,8.722c-2.275,32.289,1.364,50.993,19.748,65.699c9.678,7.749,24.391,12.479,30.49,13.686
		C244.344,172.895,225.783,159.742,217.457,144.436z"/>
</g>
</svg>
