<?xml version="1.0" encoding="utf-8"?>
<!-- Generator: Adobe Illustrator 16.0.0, SVG Export Plug-In . SVG Version: 6.00 Build 0)  -->
<!DOCTYPE svg PUBLIC "-//W3C//DTD SVG 1.1//EN" "http://www.w3.org/Graphics/SVG/1.1/DTD/svg11.dtd">
<svg version="1.1" id="Capa_1" xmlns="http://www.w3.org/2000/svg" xmlns:xlink="http://www.w3.org/1999/xlink" x="0px" y="0px"
	 width="19.5px" height="19.5px" viewBox="3.735 2.472 19.5 19.5" enable-background="new 3.735 2.472 19.5 19.5"
	 xml:space="preserve">
<g>
	<path fill="#5D5D5D" d="M17.265,10.685c1.11,0,2.224,0.003,3.334-0.004c0.174-0.001,0.241,0.057,0.267,0.223
		c0.261,1.728,0.132,3.415-0.627,5.005c-1.032,2.156-2.764,3.428-5.109,3.819c-2.747,0.459-5.169-0.254-7.054-2.321
		C5.966,15.1,5.434,12.375,6.559,9.459c1.09-2.827,3.255-4.437,6.254-4.814c2.157-0.271,4.103,0.332,5.767,1.765
		c0.15,0.128,0.184,0.196,0.021,0.353c-0.627,0.605-1.243,1.223-1.85,1.85c-0.148,0.155-0.27,0.155-0.405,0.03
		C14.517,6.969,11.256,7.405,9.8,9.91c-0.771,1.327-0.834,2.731-0.238,4.154c0.577,1.369,1.615,2.229,3.025,2.579
		c1.46,0.362,2.842,0.121,4.02-0.881c0.552-0.467,0.899-1.074,1.083-1.779c0.051-0.188,0.016-0.229-0.178-0.228
		c-1.193,0.005-2.388-0.008-3.581,0.005c-0.227,0.003-0.293-0.057-0.288-0.285c0.014-0.855,0.009-1.711,0-2.563
		c-0.003-0.185,0.055-0.233,0.232-0.233C15.006,10.688,16.136,10.685,17.265,10.685z"/>
</g>
</svg>
