<?xml version="1.0" encoding="utf-8"?>
<!-- Generator: Adobe Illustrator 16.0.0, SVG Export Plug-In . SVG Version: 6.00 Build 0)  -->
<!DOCTYPE svg PUBLIC "-//W3C//DTD SVG 1.1//EN" "http://www.w3.org/Graphics/SVG/1.1/DTD/svg11.dtd">
<svg version="1.1" id="Capa_1" xmlns="http://www.w3.org/2000/svg" xmlns:xlink="http://www.w3.org/1999/xlink" x="0px" y="0px"
	 width="19.5px" height="19.5px" viewBox="1.336 1.335 19.5 19.5" enable-background="new 1.336 1.335 19.5 19.5"
	 xml:space="preserve">
<g>
	<path fill="#5D5D5D" d="M14.963,3.863H7.21c-1.85,0-3.348,1.498-3.348,3.347v7.752c0,1.85,1.498,3.347,3.348,3.347h7.753
		c1.848,0,3.347-1.498,3.347-3.347V7.21C18.31,5.363,16.813,3.863,14.963,3.863z M11.087,14.659c-1.658,0-3.002-1.343-3.002-3.002
		c0-1.657,1.344-2.999,3.002-2.999s3.002,1.342,3.002,2.999C14.089,13.316,12.746,14.659,11.087,14.659z M15.134,8.125
		c-0.771,0-1.392-0.626-1.392-1.398c0-0.773,0.621-1.396,1.392-1.396c0.772,0,1.397,0.625,1.397,1.396S15.907,8.125,15.134,8.125z"
		/>
</g>
</svg>
