<?xml version="1.0" encoding="utf-8"?>
<!-- Generator: Adobe Illustrator 16.0.0, SVG Export Plug-In . SVG Version: 6.00 Build 0)  -->
<!DOCTYPE svg PUBLIC "-//W3C//DTD SVG 1.1//EN" "http://www.w3.org/Graphics/SVG/1.1/DTD/svg11.dtd">
<svg version="1.1" id="Capa_1" xmlns="http://www.w3.org/2000/svg" xmlns:xlink="http://www.w3.org/1999/xlink" x="0px" y="0px"
	 width="445px" height="236px" viewBox="0 0 445 236" enable-background="new 0 0 445 236" xml:space="preserve">
<g>
	<path fill="#FFFFFF" d="M375.265,178.467c-6.698,0-11.302-5.441-12.345-17.582c-10.877,12.35-14.437,17.582-25.739,17.582
		c-8.573,0-10.671-7.115-10.671-10.465c0-5.854,1.048-11.719,6.906-22.174l15.694-28.457c1.669-2.928,3.55-2.928,5.646-2.928
		c1.671,0,4.184,1.463,6.908,1.463c1.879,0,5.228-5.232,7.528-5.858l-24.901,46.869c-2.926,5.44-3.76,10.254-3.76,11.718
		c0,2.928,1.465,5.434,5.435,5.434c2.934,0,16.114-12.973,24.479-27.826l16.318-29.078c1.047-1.885,2.513-2.717,4.812-2.717
		c3.142,0,4.395,1.463,7.537,1.463c1.875,0,4.804-4.812,7.525-5.858l-26.573,50.007c-2.508,4.604-3.34,6.482-3.34,9.2
		c0,2.517,1.664,4.188,5.438,4.188c9.412,0,31.171-19.877,49.38-45.189l4.688-3.363
		C427.869,137.447,397.855,178.467,375.265,178.467z"/>
	<path fill="#C73327" d="M396.843,41.259c-38.134,0-55.177,31.292-60.372,41.547c-14.2,28.019-16.557,45.18-36.01,64.825
		c-14.02,14.156-27.611,21.042-27.611,21.042c47.064-10.405,64.973-64.595,73.689-83.893c7.402-16.4,21.383-38.545,50.493-38.545
		c24.318,0,40.961,18.099,40.961,40.018c0,24.135-20.51,48.759-42.614,48.759c-17.322,0-31.336-13.07-31.336-30.944
		c0-25.057,22.64-30.958,22.64-30.958S362.2,78.274,362.2,104.068c0,18.235,14.465,32.977,33.262,32.977
		c23.207,0,44.539-23.584,44.539-50.295C439.999,63.168,421.167,41.259,396.843,41.259z"/>
	<path fill="#C73327" d="M334.465,9.806c-31.844,3.809-49.256,38.004-49.256,38.004c13.197-16.26,24.635-16.511,24.635-16.511
		c-4.373,5.032-15.207,20.841-12.404,71.084c2.797,50.25-44.312,70.501-44.312,70.501c68.793-25.795,59.722-73.865,59.722-73.865
		C302.812,15.456,334.465,9.806,334.465,9.806z"/>
	<path fill="#C73327" d="M266.824,99.818c18.812,30.624-8.024,60.497-8.024,60.497c30.86-28.479,30.61-50.46,16.745-74.08
		c-13.036-22.184-15.418-34.214-15.658-35.589c-0.049,0.672-0.883,5.318-22.205,25.012c-28.956,26.745-12.57,52.619-12.57,52.619
		c-7.462-25.604,22.957-53.941,27.287-57.51C252.002,72.1,253.145,77.573,266.824,99.818z"/>
	<g>
		<path fill="#C73327" d="M28.454,221.395c-0.386,0.801-0.861,1.502-1.417,2.113c-0.562,0.611-1.209,1.104-1.95,1.455
			c-0.747,0.352-1.58,0.529-2.506,0.529H22.3h-0.276c-0.967,0-1.814-0.18-2.536-0.529c-0.722-0.352-1.363-0.844-1.925-1.455
			c-0.551-0.611-1.037-1.312-1.444-2.113c-0.411-0.793-0.741-1.625-1.001-2.479l-6.687-21.279h4.18l6.682,21.279
			c0.226,0.673,0.546,1.264,0.977,1.785c0.421,0.521,1.013,0.783,1.754,0.783H22.3h0.281c0.741,0,1.328-0.266,1.754-0.783
			c0.426-0.521,0.752-1.112,0.978-1.785l6.681-21.279h4.175l-6.736,21.279C29.17,219.77,28.845,220.602,28.454,221.395z"/>
		<path fill="#C73327" d="M42.243,195.971c-0.741,0-1.383-0.262-1.924-0.779c-0.542-0.521-0.807-1.152-0.807-1.896
			s0.266-1.383,0.807-1.924c0.541-0.533,1.183-0.806,1.924-0.806c0.742,0,1.374,0.271,1.895,0.806
			c0.517,0.541,0.777,1.183,0.777,1.924c0,0.742-0.261,1.371-0.777,1.896C43.617,195.709,42.985,195.971,42.243,195.971z
			 M40.238,204.271c0-0.894,0.165-1.744,0.501-2.535c0.331-0.805,0.792-1.506,1.394-2.117c0.592-0.619,1.278-1.102,2.055-1.453
			c0.781-0.352,1.619-0.527,2.505-0.527v4.008c-0.661,0.039-1.243,0.311-1.724,0.812c-0.48,0.501-0.721,1.102-0.721,1.812v21.223
			h-4.01V204.271z"/>
		<path fill="#C73327" d="M71.265,197.637c0.892,0,1.744,0.178,2.561,0.529c0.817,0.354,1.519,0.832,2.116,1.423
			c0.596,0.593,1.067,1.294,1.418,2.085c0.356,0.805,0.531,1.646,0.531,2.537v3.068c-0.04,0.891-0.24,1.713-0.611,2.475
			c-0.371,0.764-0.852,1.424-1.449,1.977c-0.597,0.562-1.277,1.002-2.06,1.334c-0.782,0.342-1.614,0.502-2.506,0.502H54.053v5.293
			c0,0.75,0.25,1.371,0.751,1.875c0.501,0.5,1.123,0.75,1.865,0.75h14.596c0.742,0,1.363-0.25,1.865-0.75
			c0.501-0.504,0.751-1.125,0.751-1.875h4.01c0,0.932-0.175,1.793-0.531,2.596c-0.351,0.795-0.822,1.496-1.418,2.084
			c-0.597,0.595-1.299,1.072-2.116,1.427c-0.817,0.353-1.669,0.53-2.561,0.53H56.668c-0.932,0-1.795-0.182-2.592-0.53
			c-0.797-0.354-1.494-0.832-2.09-1.427c-0.591-0.588-1.062-1.289-1.418-2.084c-0.356-0.803-0.526-1.664-0.526-2.596v-14.588
			c0-0.892,0.17-1.756,0.526-2.562c0.356-0.822,0.827-1.523,1.418-2.117c0.596-0.59,1.293-1.068,2.09-1.424
			c0.796-0.354,1.66-0.527,2.592-0.527L71.265,197.637L71.265,197.637z M73.881,204.271c0-0.752-0.25-1.375-0.751-1.875
			c-0.501-0.502-1.123-0.752-1.865-0.752H56.668c-0.742,0-1.363,0.25-1.865,0.752c-0.501,0.5-0.751,1.123-0.751,1.875v5.279h17.212
			c0.701,0,1.308-0.236,1.809-0.723c0.501-0.479,0.767-1.07,0.807-1.781L73.881,204.271L73.881,204.271z"/>
		<path fill="#C73327" d="M85.244,186.718v11.419c0.406-0.182,0.807-0.322,1.199-0.41c0.391-0.102,0.807-0.143,1.253-0.143h0.17
			h21.222v4.012H87.865c-0.747,0-1.369,0.25-1.87,0.752s-0.752,1.121-0.752,1.863v14.646c0,0.711,0.245,1.312,0.727,1.812
			c0.481,0.502,1.073,0.771,1.784,0.812h14.702c0.747,0,1.368-0.25,1.869-0.75c0.501-0.504,0.751-1.115,0.751-1.814h4.01
			c0,0.854-0.161,1.65-0.476,2.396c-0.315,0.744-0.731,1.416-1.252,2.008c-0.517,0.59-1.148,1.07-1.89,1.441
			c-0.748,0.369-1.524,0.602-2.346,0.672v0.061h-0.666H87.754h-0.06c-0.893-0.039-1.725-0.229-2.507-0.59
			c-0.782-0.354-1.463-0.824-2.06-1.416c-0.597-0.602-1.058-1.293-1.394-2.094c-0.335-0.793-0.501-1.646-0.501-2.535v-32.143
			L85.244,186.718L85.244,186.718z"/>
		<path fill="#C73327" d="M112.957,201.674c0.351-0.791,0.827-1.492,1.423-2.085c0.592-0.591,1.289-1.069,2.085-1.423
			c0.801-0.354,1.664-0.529,2.591-0.529h14.541c0.922,0,1.789,0.178,2.586,0.529c0.802,0.354,1.493,0.832,2.09,1.423
			c0.596,0.593,1.067,1.294,1.418,2.085c0.356,0.805,0.531,1.666,0.531,2.598v21.225h-4.01v-21.225c0-0.75-0.25-1.373-0.751-1.875
			c-0.501-0.5-1.123-0.75-1.865-0.75h-14.539c-0.747,0-1.368,0.25-1.87,0.75c-0.501,0.502-0.751,1.125-0.751,1.875v21.225h-4.01
			v-21.225C112.425,203.34,112.605,202.479,112.957,201.674z"/>
		<path fill="#C73327" d="M171.305,219.199c0.074,0.66,0.356,1.23,0.837,1.693c0.48,0.473,1.058,0.723,1.724,0.75v3.961
			c-0.892,0-1.724-0.172-2.506-0.5c-0.782-0.343-1.483-0.806-2.115-1.396c-0.596,0.551-1.284,0.992-2.065,1.304
			c-0.778,0.319-1.595,0.479-2.447,0.479h-14.595c-0.893,0-1.734-0.182-2.536-0.529c-0.797-0.354-1.494-0.832-2.085-1.426
			c-0.596-0.592-1.072-1.291-1.423-2.086c-0.352-0.803-0.532-1.643-0.532-2.535v-14.533c0-0.893,0.18-1.742,0.532-2.566
			c0.351-0.812,0.827-1.522,1.423-2.113c0.592-0.592,1.289-1.072,2.085-1.424c0.802-0.354,1.644-0.533,2.536-0.533h14.596
			c0.893,0,1.734,0.182,2.531,0.533c0.798,0.352,1.499,0.832,2.09,1.424c0.591,0.591,1.068,1.304,1.424,2.113
			c0.349,0.824,0.525,1.676,0.525,2.566v14.533L171.305,219.199L171.305,219.199z M167.295,204.383c0-0.742-0.25-1.365-0.758-1.867
			c-0.5-0.509-1.102-0.76-1.804-0.76h-14.596c-0.707,0-1.313,0.251-1.814,0.76c-0.501,0.502-0.751,1.125-0.751,1.867v14.533
			c0,0.742,0.25,1.365,0.751,1.865c0.501,0.502,1.107,0.752,1.814,0.752h14.596c0.667,0,1.243-0.23,1.725-0.692
			c0.48-0.47,0.761-1.03,0.837-1.704v-0.109v-0.107V204.383L167.295,204.383z"/>
		<path fill="#C73327" d="M198.431,203.99c-0.074-0.631-0.355-1.186-0.837-1.645c-0.48-0.462-1.077-0.701-1.784-0.701h-14.535
			c-0.742,0-1.364,0.25-1.866,0.75c-0.5,0.502-0.751,1.125-0.751,1.875v21.223h-4.009v-21.221c0-0.934,0.17-1.795,0.525-2.6
			c0.357-0.791,0.827-1.492,1.419-2.085c0.596-0.591,1.293-1.069,2.089-1.423c0.798-0.354,1.66-0.529,2.593-0.529h14.535
			c0.892,0,1.739,0.168,2.537,0.5c0.802,0.342,1.493,0.803,2.09,1.395c0.596-0.592,1.277-1.053,2.06-1.395
			c0.781-0.332,1.633-0.5,2.565-0.5h14.537c0.892,0,1.744,0.18,2.562,0.529c0.816,0.354,1.524,0.832,2.118,1.423
			c0.593,0.593,1.062,1.294,1.421,2.085c0.351,0.805,0.524,1.666,0.524,2.6v21.223h-4.012v-21.223c0-0.752-0.25-1.375-0.751-1.875
			c-0.5-0.502-1.121-0.752-1.864-0.752h-14.537c-0.711,0-1.303,0.24-1.784,0.701s-0.761,1.014-0.837,1.646v0.278v21.224h-4.011
			V204.27L198.431,203.99L198.431,203.99z"/>
		<path fill="#C73327" d="M257.42,225.492v-32.088c0-0.896,0.166-1.734,0.503-2.535c0.329-0.795,0.796-1.496,1.394-2.086
			c0.594-0.592,1.27-1.072,2.029-1.426c0.762-0.352,1.588-0.551,2.48-0.578h0.109h2.953v4.008h-2.953
			c-0.707,0.041-1.305,0.302-1.785,0.802c-0.48,0.503-0.721,1.114-0.721,1.815v4.291h5.459v3.949h-5.459v23.848H257.42
			L257.42,225.492z"/>
		<path fill="#C73327" d="M270.232,218.859v-21.274h4.01v21.274c0,0.75,0.25,1.369,0.754,1.875c0.5,0.5,1.121,0.75,1.863,0.75
			h14.596c0.74,0,1.361-0.25,1.865-0.75c0.5-0.506,0.752-1.125,0.752-1.875v-21.274h4.01v21.274c0,0.93-0.176,1.793-0.531,2.594
			c-0.352,0.795-0.822,1.496-1.42,2.084c-0.598,0.595-1.297,1.074-2.113,1.427c-0.816,0.351-1.67,0.53-2.562,0.53h-14.597
			c-0.935,0-1.795-0.182-2.592-0.53c-0.798-0.353-1.494-0.832-2.091-1.427c-0.592-0.588-1.062-1.289-1.42-2.084
			C270.404,220.652,270.232,219.789,270.232,218.859z"/>
		<path fill="#C73327" d="M324.455,214.346c-0.502-0.479-1.104-0.723-1.812-0.723h-14.698v-0.059c-0.896,0-1.734-0.172-2.512-0.521
			c-0.777-0.352-1.473-0.832-2.062-1.424c-0.592-0.594-1.064-1.283-1.422-2.066c-0.352-0.771-0.526-1.613-0.526-2.504v-0.053v-0.609
			v-2.115c0-1.633,0.336-2.906,1.003-3.818c0.667-0.91,1.428-1.573,2.279-1.977c0.975-0.479,2.086-0.762,3.351-0.84h14.59
			c0.894,0,1.749,0.178,2.562,0.529c0.822,0.354,1.522,0.832,2.115,1.423c0.598,0.593,1.07,1.294,1.424,2.116
			c0.35,0.811,0.531,1.675,0.531,2.564h-4.013c0-0.75-0.25-1.373-0.753-1.875c-0.501-0.5-1.122-0.75-1.866-0.75h-14.592
			c-0.485,0.037-0.935,0.147-1.34,0.342c-0.335,0.18-0.638,0.449-0.895,0.799c-0.26,0.361-0.391,0.854-0.391,1.484v2.113v0.611
			c0,0.703,0.25,1.304,0.751,1.805c0.502,0.501,1.107,0.751,1.812,0.751v0.062h14.648c0.893,0,1.739,0.173,2.536,0.502
			c0.797,0.33,1.504,0.805,2.116,1.395c0.615,0.594,1.097,1.284,1.447,2.059c0.35,0.777,0.531,1.621,0.531,2.515v0.052v2.729
			c0,0.933-0.185,1.793-0.531,2.595c-0.354,0.795-0.826,1.496-1.424,2.086c-0.595,0.594-1.293,1.074-2.115,1.426
			c-0.812,0.353-1.67,0.529-2.562,0.529h-14.59c-0.935,0-1.796-0.181-2.599-0.529c-0.791-0.352-1.494-0.832-2.086-1.426
			c-0.592-0.59-1.064-1.291-1.422-2.086c-0.354-0.802-0.527-1.662-0.527-2.595h4.012c0,0.752,0.25,1.371,0.751,1.875
			c0.502,0.5,1.123,0.752,1.871,0.752h14.59c0.746,0,1.367-0.252,1.868-0.752c0.503-0.504,0.753-1.123,0.753-1.875v-2.729
			C325.228,215.43,324.957,214.828,324.455,214.346z"/>
		<path fill="#C73327" d="M335.348,195.971c-0.74,0-1.384-0.262-1.92-0.779c-0.541-0.521-0.812-1.152-0.812-1.896
			s0.271-1.383,0.812-1.924c0.536-0.533,1.18-0.806,1.92-0.806c0.741,0,1.373,0.271,1.896,0.806
			c0.518,0.541,0.774,1.183,0.774,1.924c0,0.742-0.26,1.371-0.774,1.896C336.721,195.709,336.089,195.971,335.348,195.971z
			 M333.343,204.271c0-0.894,0.166-1.744,0.5-2.535c0.337-0.805,0.798-1.506,1.396-2.117c0.598-0.619,1.275-1.102,2.062-1.453
			c0.782-0.352,1.614-0.527,2.506-0.527v4.008c-0.666,0.039-1.241,0.311-1.724,0.812c-0.486,0.501-0.729,1.102-0.729,1.812v21.223
			h-4.011V204.271L333.343,204.271z"/>
		<path fill="#C73327" d="M364.369,197.637c0.893,0,1.748,0.178,2.561,0.529c0.822,0.354,1.523,0.832,2.115,1.423
			c0.598,0.593,1.072,1.294,1.424,2.116c0.354,0.811,0.531,1.675,0.531,2.564v14.588c0,0.932-0.182,1.793-0.531,2.594
			c-0.352,0.795-0.826,1.496-1.424,2.086c-0.592,0.594-1.293,1.074-2.115,1.426c-0.812,0.352-1.668,0.529-2.561,0.529h-14.592
			c-0.935,0-1.793-0.18-2.599-0.529c-0.79-0.352-1.493-0.832-2.085-1.426c-0.591-0.59-1.066-1.291-1.423-2.086
			c-0.351-0.801-0.527-1.662-0.527-2.594v-14.586c0-0.894,0.179-1.756,0.527-2.564c0.354-0.823,0.832-1.525,1.423-2.117
			c0.593-0.59,1.295-1.07,2.085-1.424c0.806-0.352,1.664-0.527,2.599-0.527L364.369,197.637L364.369,197.637z M366.99,204.271
			c0-0.752-0.25-1.375-0.752-1.875c-0.502-0.502-1.123-0.752-1.869-0.752h-14.592c-0.746,0-1.367,0.25-1.869,0.752
			c-0.502,0.5-0.75,1.123-0.75,1.875v14.588c0,0.75,0.248,1.369,0.75,1.875c0.502,0.5,1.123,0.75,1.869,0.75h14.592
			c0.746,0,1.367-0.25,1.869-0.75c0.502-0.506,0.752-1.125,0.752-1.875V204.271z"/>
		<path fill="#C73327" d="M374.869,201.674c0.352-0.791,0.828-1.492,1.424-2.085c0.592-0.591,1.289-1.069,2.086-1.423
			c0.803-0.354,1.664-0.529,2.592-0.529h14.541c0.921,0,1.788,0.178,2.586,0.529c0.804,0.354,1.494,0.832,2.092,1.423
			c0.597,0.593,1.065,1.294,1.419,2.085c0.354,0.805,0.528,1.666,0.528,2.598v21.225h-4.01v-21.225c0-0.75-0.251-1.373-0.751-1.875
			c-0.501-0.5-1.124-0.75-1.864-0.75h-14.541c-0.748,0-1.369,0.25-1.871,0.75c-0.5,0.502-0.751,1.125-0.751,1.875v21.225h-4.01
			v-21.225C374.338,203.34,374.518,202.479,374.869,201.674z"/>
	</g>
	<path fill="#FFFFFF" d="M135.131,136.736l-17.181,20.568c-6.275,7.047-10.582,11.561-12.933,13.514
		c-4.18,3.526-8.36,5.293-12.541,5.293c-3.397,0-6.205-1.174-8.42-3.527c-2.225-2.346-3.333-5.223-3.333-8.621
		c0-1.562,3.924-8.553,11.753-20.962c7.84-12.408,11.76-19.13,11.76-20.177c0-2.215-1.173-3.33-3.509-3.33
		c-3.247,0-10.852,7.273-22.805,21.812c-6.197,11.469-11.73,21.562-16.602,30.295c-1.053,1.82-2.806,2.743-5.292,2.743
		c-0.782,0-1.895-0.259-3.328-0.776c-1.434-0.522-2.477-0.783-3.128-0.783c-0.912,0-3.263,1.895-7.052,5.683
		c19.461-35.92,29.186-54.661,29.186-56.229c0-1.829-0.712-2.743-2.146-2.743c-3.268,0-10.716,6.011-22.334,18.021
		c-3.529,3.659-8.23,11.237-14.109,22.729c-4.827,9.4-8.035,14.104-9.599,14.104c-0.912,0-2.281-0.26-4.11-0.779
		c-1.829-0.521-3.198-0.782-4.121-0.782c-0.907,0-3.258,1.896-7.047,5.685l27.237-51.334c2.606-4.961,4.171-7.701,4.702-8.229
		c0.902-1.695,2.21-2.547,3.909-2.547c0.912,0,2.186,0.201,3.82,0.592c1.634,0.391,2.907,0.586,3.824,0.586
		c0.521,0,1.83-0.848,3.914-2.553l3.138-2.74l-9.995,18.811c10.837-10.975,20.109-16.459,27.819-16.459
		c5.884,0,8.817,4.51,8.817,13.521c6.009-5.611,10.12-9.142,12.35-10.58c3.003-1.961,6.662-2.942,10.962-2.942
		c2.486,0,4.605,0.981,6.366,2.942c1.769,1.959,2.646,4.181,2.646,6.66c0,0.913-1.108,3.198-3.324,6.854l-19.001,30.756
		c-1.965,3.14-2.948,5.293-2.948,6.467c0,3.136,1.304,4.699,3.91,4.699c3.128,0,9.829-5.764,20.125-17.293l16.731-20.537
		L135.131,136.736z"/>
	<path fill="#FFFFFF" d="M197.785,123.062c-7.078,11.768-14.862,25.86-27.367,39.646c-10.381,11.448-20,15.757-29.628,15.757
		c-6.506,0-9.81-4.568-9.935-13.689c0-2.377,2.582-8.254,7.779-17.625c5.188-9.383,7.779-14.373,7.779-15.004
		c0-0.871-0.25-1.312-0.747-1.312c-6.255,3.876-10.195,5.812-11.814,5.812c-2.997,0-4.501-2.375-4.501-7.123
		c0-2.873,1.098-5.967,3.283-9.278c2.18-3.313,4.651-4.967,7.408-4.967c2.998,0,4.501,1.434,4.501,4.312
		c0,3.497-2.195,7.812-6.566,12.928c10.245-8.619,16.811-12.928,19.688-12.928c1.875,0,3.438,0.717,4.687,2.155
		s1.879,3.155,1.879,5.149c0,1.635-1.327,4.691-3.973,9.19l-14.942,25.312c-2.386,4.012-3.588,6.564-3.588,7.688
		c0,3.377,1.623,5.062,4.892,5.062C156.534,174.146,174.368,157.225,197.785,123.062z M141.728,119.604
		c0-1.137-0.562-1.71-1.685-1.71c-2.005,0-3.784,1.367-5.348,4.089c-1.563,2.722-2.341,5.224-2.341,7.498
		c0,2.153,0.687,3.234,2.065,3.234C139.287,126.383,141.728,122.014,141.728,119.604z"/>
	<path fill="#FFFFFF" d="M197.785,164.322c0,2.426-0.953,4.592-2.846,6.486c-1.905,1.903-4.065,2.848-6.497,2.848
		c-4.401,0-6.601-2.576-6.601-7.748c0-2.428,0.907-4.582,2.731-6.486c1.824-1.895,3.949-2.846,6.375-2.846
		C195.504,156.574,197.785,159.16,197.785,164.322z"/>
	<path fill="#C73327" d="M217.457,144.436c-17.125-31.5-3.644-56.176-15.162-67.397c-10.215-9.95-22.927,8.796-22.927,8.796
		s22.335-24.145,20.02,8.722c-2.275,32.289,1.364,50.993,19.748,65.699c9.678,7.749,24.391,12.479,30.49,13.685
		C244.344,172.895,225.783,159.742,217.457,144.436z"/>
</g>
</svg>
