<?xml version="1.0" encoding="utf-8"?>
<!-- Generator: Adobe Illustrator 16.0.0, SVG Export Plug-In . SVG Version: 6.00 Build 0)  -->
<!DOCTYPE svg PUBLIC "-//W3C//DTD SVG 1.1//EN" "http://www.w3.org/Graphics/SVG/1.1/DTD/svg11.dtd">
<svg version="1.1" id="Capa_1" xmlns="http://www.w3.org/2000/svg" xmlns:xlink="http://www.w3.org/1999/xlink" x="0px" y="0px"
	 width="141.165px" height="55.145px" viewBox="0 0 141.165 55.145" enable-background="new 0 0 141.165 55.145"
	 xml:space="preserve">
<g>
	<path fill="#2D2D2D" d="M120,55.144c-2.191,0-3.696-1.778-4.037-5.749c-3.557,4.039-4.721,5.749-8.416,5.749
		c-2.805,0-3.489-2.327-3.489-3.421c0-1.915,0.343-3.831,2.258-7.25l5.131-9.304c0.546-0.957,1.161-0.957,1.847-0.957
		c0.547,0,1.367,0.479,2.26,0.479c0.613,0,1.709-1.711,2.461-1.916l-8.141,15.324c-0.957,1.779-1.229,3.354-1.229,3.831
		c0,0.957,0.479,1.776,1.776,1.776c0.959,0,5.269-4.242,8.004-9.1l5.336-9.507c0.342-0.616,0.82-0.888,1.572-0.888
		c1.027,0,1.438,0.479,2.465,0.479c0.613,0,1.57-1.572,2.461-1.916l-8.689,16.35c-0.818,1.505-1.092,2.121-1.092,3.009
		c0,0.822,0.544,1.369,1.777,1.369c3.078,0,10.19-6.498,16.146-14.775l1.532-1.1C137.2,41.732,127.386,55.144,120,55.144z"/>
	<path fill="#C73327" d="M127.055,10.284c-12.469,0-18.04,10.229-19.739,13.584c-4.644,9.159-5.413,14.771-11.772,21.193
		c-4.584,4.628-9.027,6.88-9.027,6.88c15.388-3.402,21.242-21.119,24.093-27.429c2.42-5.361,6.991-12.602,16.509-12.602
		c7.951,0,13.393,5.918,13.393,13.083c0,7.892-6.706,15.941-13.934,15.941c-5.664,0-10.244-4.272-10.244-10.117
		c0-8.191,7.401-10.121,7.401-10.121s-8.005,1.688-8.005,10.121c0,5.963,4.729,10.782,10.875,10.782
		c7.588,0,14.562-7.71,14.562-16.443C141.165,17.448,135.006,10.284,127.055,10.284z"/>
	<path fill="#C73327" d="M106.661,0C96.249,1.246,90.556,12.425,90.556,12.425c4.313-5.316,8.054-5.398,8.054-5.398
		c-1.43,1.646-4.972,6.813-4.056,23.241c0.913,16.43-14.488,23.05-14.488,23.05c22.492-8.434,19.526-24.149,19.526-24.149
		C96.311,1.847,106.661,0,106.661,0z"/>
	<path fill="#C73327" d="M84.545,29.429c6.149,10.013-2.625,19.78-2.625,19.78c10.091-9.312,10.009-16.499,5.476-24.222
		c-4.263-7.253-5.042-11.187-5.12-11.636c-0.016,0.221-0.288,1.739-7.26,8.179c-9.467,8.744-4.109,17.204-4.109,17.204
		c-2.441-8.372,7.505-17.637,8.921-18.804C79.7,20.367,80.072,22.157,84.545,29.429z"/>
	<path fill="#2D2D2D" d="M41.488,41.5l-5.618,6.725c-2.052,2.304-3.46,3.78-4.229,4.418c-1.367,1.153-2.733,1.73-4.101,1.73
		c-1.11,0-2.028-0.383-2.753-1.153c-0.728-0.767-1.089-1.708-1.089-2.818c0-0.511,1.282-2.797,3.842-6.854
		c2.563-4.057,3.845-6.254,3.845-6.596c0-0.726-0.384-1.09-1.147-1.09c-1.062,0-3.548,2.379-7.456,7.132
		c-2.026,3.75-3.835,7.051-5.428,9.904c-0.344,0.597-0.917,0.897-1.73,0.897c-0.256,0-0.62-0.085-1.088-0.254
		c-0.469-0.171-0.81-0.256-1.023-0.256c-0.297,0-1.066,0.62-2.306,1.857C17.571,43.4,20.75,37.272,20.75,36.76
		c0-0.598-0.232-0.897-0.702-0.897c-1.068,0-3.503,1.966-7.302,5.894c-1.154,1.197-2.691,3.674-4.613,7.431
		c-1.578,3.074-2.627,4.611-3.138,4.611c-0.298,0-0.746-0.084-1.343-0.254c-0.599-0.171-1.046-0.256-1.348-0.256
		c-0.296,0-1.065,0.62-2.304,1.857l8.905-16.783c0.852-1.621,1.363-2.519,1.537-2.689c0.295-0.554,0.722-0.833,1.278-0.833
		c0.298,0,0.714,0.066,1.249,0.193c0.534,0.128,0.95,0.19,1.25,0.19c0.17,0,0.598-0.276,1.279-0.834l1.026-0.896l-3.268,6.149
		c3.543-3.588,6.574-5.382,9.095-5.382c1.924,0,2.883,1.474,2.883,4.421c1.964-1.835,3.309-2.989,4.038-3.459
		c0.982-0.641,2.179-0.961,3.584-0.961c0.813,0,1.506,0.32,2.082,0.961c0.579,0.641,0.865,1.367,0.865,2.178
		c0,0.299-0.362,1.047-1.087,2.242l-6.212,10.056c-0.643,1.025-0.964,1.729-0.964,2.114c0,1.025,0.426,1.536,1.279,1.536
		c1.022,0,3.213-1.884,6.58-5.654l5.47-6.715L41.488,41.5z"/>
	<path fill="#2D2D2D" d="M61.972,37.031c-2.313,3.847-4.858,8.455-8.947,12.963c-3.394,3.742-6.54,5.15-9.687,5.15
		c-2.127,0-3.207-1.494-3.248-4.477c0-0.777,0.844-2.698,2.543-5.762c1.697-3.068,2.543-4.7,2.543-4.905
		c0-0.285-0.082-0.431-0.244-0.431c-2.045,1.269-3.333,1.9-3.863,1.9c-0.979,0-1.471-0.777-1.471-2.33
		c0-0.938,0.359-1.95,1.073-3.033c0.713-1.083,1.521-1.625,2.422-1.625c0.98,0,1.472,0.47,1.472,1.41
		c0,1.145-0.718,2.556-2.146,4.228c3.35-2.818,5.496-4.228,6.437-4.228c0.613,0,1.124,0.234,1.532,0.704
		c0.408,0.47,0.614,1.033,0.614,1.685c0,0.534-0.434,1.534-1.299,3.005l-4.885,8.275c-0.78,1.312-1.174,2.146-1.174,2.515
		c0,1.104,0.531,1.653,1.6,1.653C48.485,53.731,54.316,48.199,61.972,37.031z M43.644,35.899c0-0.372-0.184-0.56-0.55-0.56
		c-0.655,0-1.237,0.447-1.749,1.337c-0.511,0.89-0.766,1.708-0.766,2.451c0,0.705,0.225,1.058,0.675,1.058
		C42.846,38.115,43.644,36.686,43.644,35.899z"/>
	<path fill="#2D2D2D" d="M61.972,50.52c0,0.793-0.311,1.501-0.93,2.121c-0.623,0.623-1.329,0.932-2.124,0.932
		c-1.439,0-2.159-0.844-2.159-2.534c0-0.794,0.297-1.498,0.894-2.121c0.596-0.619,1.291-0.931,2.084-0.931
		C61.227,47.986,61.972,48.832,61.972,50.52z"/>
	<path fill="#C73327" d="M68.404,44.017c-5.6-10.299-1.191-18.366-4.958-22.036c-3.339-3.253-7.496,2.876-7.496,2.876
		s7.303-7.895,6.546,2.853c-0.744,10.557,0.446,16.672,6.457,21.479c3.165,2.534,7.975,4.08,9.969,4.475
		C77.194,53.323,71.125,49.021,68.404,44.017z"/>
</g>
</svg>
