<?xml version="1.0" encoding="utf-8"?>
<!-- Generator: Adobe Illustrator 16.0.0, SVG Export Plug-In . SVG Version: 6.00 Build 0)  -->
<!DOCTYPE svg PUBLIC "-//W3C//DTD SVG 1.1//EN" "http://www.w3.org/Graphics/SVG/1.1/DTD/svg11.dtd">
<svg version="1.1" id="Capa_1" xmlns="http://www.w3.org/2000/svg" xmlns:xlink="http://www.w3.org/1999/xlink" x="0px" y="0px"
	 width="150px" height="40px" viewBox="0 0 150 40" enable-background="new 0 0 150 40" xml:space="preserve">
<g display="none">
	<path display="inline" fill-rule="evenodd" clip-rule="evenodd" fill="#1A1A1A" d="M27.897,17.469
		c0.333-3.146,0.649-6.121,0.961-9.097c0.241-2.294,0.482-4.589,0.706-6.884c0.034-0.346,0.187-0.402,0.488-0.369
		c1.701,0.183,3.404,0.35,5.105,0.528c1.185,0.125,2.368,0.27,3.555,0.378c0.335,0.03,0.391,0.129,0.354,0.459
		c-0.67,6.25-1.327,12.502-1.982,18.753c-0.17,1.625-0.334,3.251-0.494,4.878c-0.025,0.256-0.114,0.483-0.216,0.712
		c-1.67,3.734-3.343,7.468-5.003,11.207c-0.158,0.357-0.287,0.513-0.749,0.413c-7.583-1.639-15.173-3.25-22.764-4.857
		c-0.292-0.062-0.42-0.175-0.481-0.465c-0.726-3.419-1.455-6.838-2.211-10.25c-0.093-0.42,0.031-0.518,0.395-0.594
		c4.061-0.848,8.119-1.708,12.179-2.562c0.771-0.162,0.778-0.155,0.612-0.941c-0.871-4.135-1.744-8.269-2.618-12.403
		c-0.156-0.737-0.16-0.736,0.584-0.893c2.706-0.57,5.414-1.13,8.116-1.721c0.393-0.086,0.524-0.014,0.606,0.379
		c0.877,4.192,1.772,8.38,2.663,12.569C27.749,16.912,27.807,17.11,27.897,17.469z M19.505,23.733
		c-0.023,1.083,0.538,1.637,1.672,1.649c0.826,0.009,1.502-0.688,1.506-1.552c0.003-0.789-0.727-1.498-1.564-1.52
		C20.078,22.285,19.527,22.771,19.505,23.733z M27.909,26.315c0.855-0.006,1.45-0.7,1.43-1.671c-0.016-0.826-0.752-1.487-1.66-1.491
		c-0.823-0.004-1.491,0.81-1.476,1.799C26.217,25.827,26.837,26.322,27.909,26.315z"/>
	<path display="inline" fill-rule="evenodd" clip-rule="evenodd" fill="#1A1A1A" d="M55.753,18.472c0-1.558-0.012-3.126,0.006-4.694
		c0.007-0.605-0.271-1.393,0.124-1.768c0.362-0.345,1.137-0.09,1.729-0.096c1.171-0.012,1.171-0.003,1.171,1.165
		c0,4.269,0.011,8.538-0.008,12.807c-0.005,0.96,0.281,1.855,0.467,2.773c0.072,0.355,0.015,0.472-0.367,0.458
		c-0.75-0.026-1.502-0.032-2.25,0.002c-0.39,0.018-0.554-0.124-0.608-0.489c-0.043-0.297-0.126-0.588-0.187-0.861
		c-0.17-0.02-0.231,0.058-0.294,0.126c-2.217,2.396-6.614,1.921-8.197-1.608c-1.113-2.483-1.011-4.97,0.599-7.224
		c1.81-2.533,5.212-2.812,7.528-0.716C55.535,18.408,55.583,18.506,55.753,18.472z M49.634,23.143
		c-0.007,1.78,1.203,3.001,2.994,3.023c1.86,0.021,3.141-1.203,3.14-3.006c0-1.773-1.217-2.968-3.032-2.978
		C50.876,20.172,49.641,21.351,49.634,23.143z"/>
	<path display="inline" fill-rule="evenodd" clip-rule="evenodd" fill="#1A1A1A" d="M68.347,24.47c-1.289,0-2.578-0.002-3.866,0.004
		c-0.125,0-0.288-0.067-0.366,0.073c-0.078,0.14,0.055,0.255,0.125,0.358c0.817,1.2,2.05,1.406,3.362,1.353
		c0.987-0.042,1.941-0.276,2.827-0.729c0.256-0.13,0.386-0.14,0.509,0.167c0.273,0.676,0.583,1.337,0.888,2
		c0.082,0.178,0.106,0.297-0.098,0.422c-2.416,1.47-6.105,1.716-8.399,0.159c-1.547-1.05-2.302-2.558-2.452-4.368
		c-0.174-2.103,0.273-4.046,1.924-5.502c1.812-1.597,3.939-1.858,6.158-1.088c2.13,0.739,3.295,2.359,3.681,4.558
		c0.126,0.725,0.135,1.447,0.035,2.181c-0.048,0.359-0.198,0.423-0.519,0.419C70.888,24.461,69.617,24.47,68.347,24.47z
		 M66.742,22.125c0.825,0,1.651-0.014,2.477,0.008c0.393,0.01,0.457-0.097,0.311-0.459c-0.425-1.063-1.474-1.711-2.831-1.671
		c-1.18,0.034-2.191,0.387-2.723,1.566c-0.171,0.379-0.193,0.593,0.348,0.566C65.128,22.098,65.936,22.126,66.742,22.125z"/>
	<path display="inline" fill-rule="evenodd" clip-rule="evenodd" fill="#1A1A1A" d="M104.711,24.491
		c-1.289,0-2.578,0.009-3.866-0.005c-0.399-0.006-0.425,0.117-0.229,0.419c0.64,0.983,1.616,1.318,2.712,1.381
		c1.172,0.068,2.304-0.151,3.354-0.671c0.429-0.211,0.588-0.107,0.744,0.302c0.232,0.609,0.517,1.198,0.79,1.79
		c0.08,0.174,0.131,0.303-0.075,0.434c-2.378,1.501-6.489,1.852-8.852-0.167c-1.849-1.58-2.247-3.668-1.951-5.964
		c0.315-2.44,1.973-4.308,4.363-4.869c4.007-0.94,7.929,1.822,7.396,6.854c-0.038,0.367-0.178,0.515-0.578,0.506
		C107.249,24.474,105.979,24.491,104.711,24.491z M100.241,22.126c1.782,0,3.491,0,5.201-0.001c0.706,0,0.735-0.048,0.414-0.677
		c-0.634-1.239-2.31-1.788-3.883-1.264C101.064,20.487,100.514,21.121,100.241,22.126z"/>
	<path display="inline" fill-rule="evenodd" clip-rule="evenodd" fill="#1A1A1A" d="M131.319,23.182
		c-0.004,3.165-1.878,5.596-4.807,6.082c-4.396,0.73-7.593-2.46-7.151-6.799c0.282-2.769,1.895-4.678,4.265-5.284
		C127.786,16.118,131.324,18.878,131.319,23.182z M122.264,23.18c-0.004,1.788,1.238,3.007,3.065,3.005
		c1.791-0.002,3.057-1.219,3.072-2.956c0.018-1.785-1.221-3.016-3.049-3.029C123.521,20.185,122.269,21.394,122.264,23.18z"/>
	<path display="inline" fill-rule="evenodd" clip-rule="evenodd" fill="#1A1A1A" d="M144.861,23.158
		c-0.006,3.109-1.768,5.418-4.63,6.064c-4.081,0.923-7.693-2.208-7.381-6.398c0.217-2.913,1.791-4.982,4.288-5.641
		C141.271,16.094,144.869,18.877,144.861,23.158z M135.789,23.185c-0.001,1.769,1.229,2.988,3.027,3
		c1.81,0.013,3.1-1.232,3.105-2.998c0.006-1.767-1.22-2.972-3.036-2.987C137.047,20.184,135.791,21.395,135.789,23.185z"/>
	<path display="inline" fill-rule="evenodd" clip-rule="evenodd" fill="#1A1A1A" d="M90.808,26.595
		c0.294-1.225,0.586-2.45,0.879-3.675c0.419-1.755,0.855-3.506,1.247-5.268c0.088-0.391,0.247-0.488,0.616-0.476
		c0.748,0.025,1.501,0.032,2.249-0.001c0.474-0.021,0.582,0.086,0.449,0.572c-0.856,3.128-1.681,6.267-2.518,9.403
		c-0.143,0.537-0.302,1.071-0.429,1.613c-0.064,0.273-0.193,0.37-0.477,0.368c-1.385-0.013-2.771-0.011-4.155-0.001
		c-0.276,0.002-0.396-0.087-0.471-0.369c-0.978-3.712-1.968-7.422-2.963-11.13c-0.085-0.32-0.03-0.443,0.332-0.432
		c0.77,0.024,1.54,0.04,2.308-0.005c0.448-0.026,0.587,0.162,0.681,0.552c0.686,2.896,1.39,5.787,2.087,8.679
		c0.014,0.057,0.034,0.11,0.05,0.164C90.731,26.591,90.771,26.593,90.808,26.595z"/>
	<path display="inline" fill-rule="evenodd" clip-rule="evenodd" fill="#1A1A1A" d="M114.105,18.68
		c1.409-1.671,3.238-2.148,4.99-1.381c0.383,0.167,0.478,0.335,0.282,0.728c-0.384,0.773-0.73,1.564-1.065,2.36
		c-0.132,0.317-0.229,0.383-0.57,0.205c-0.827-0.432-1.707-0.464-2.549-0.035c-0.629,0.321-1.012,0.797-0.995,1.596
		c0.041,2.151,0.003,4.305,0.023,6.459c0.003,0.415-0.079,0.587-0.533,0.557c-0.612-0.042-1.232-0.043-1.845-0.001
		c-0.51,0.035-0.686-0.1-0.678-0.651c0.032-2.422-0.009-4.845,0.024-7.267c0.016-1.124-0.098-2.219-0.375-3.304
		c-0.181-0.707-0.165-0.711,0.582-0.711c0.634,0,1.27,0.021,1.902-0.007c0.383-0.017,0.559,0.103,0.593,0.497
		C113.918,18.025,114.022,18.321,114.105,18.68z"/>
	<path display="inline" fill-rule="evenodd" clip-rule="evenodd" fill="#1A1A1A" d="M74.694,20.468c0-2.673,0.01-5.347-0.01-8.02
		c-0.004-0.435,0.112-0.568,0.546-0.546c0.691,0.036,1.385,0.025,2.076,0.003c0.333-0.01,0.423,0.107,0.423,0.43
		c-0.008,5.443-0.009,10.886,0.001,16.329c0.001,0.355-0.104,0.466-0.455,0.453c-0.691-0.024-1.386-0.031-2.077,0.002
		c-0.407,0.019-0.516-0.113-0.514-0.516C74.702,25.893,74.694,23.18,74.694,20.468z"/>
	<path display="inline" fill-rule="evenodd" clip-rule="evenodd" fill="#1A1A1A" d="M83.503,23.189c0,1.808-0.012,3.613,0.01,5.419
		c0.005,0.409-0.118,0.527-0.518,0.511c-0.71-0.031-1.423-0.021-2.133-0.004c-0.303,0.007-0.395-0.095-0.394-0.396
		c0.008-3.709,0.009-7.417-0.002-11.127c-0.001-0.334,0.106-0.425,0.428-0.415c0.71,0.021,1.423,0.026,2.133-0.001
		c0.374-0.015,0.488,0.097,0.485,0.478C83.492,19.499,83.503,21.344,83.503,23.189z"/>
	<path display="inline" fill-rule="evenodd" clip-rule="evenodd" fill="#1A1A1A" d="M82.014,15.563
		c-1.082,0.009-1.944-0.84-1.953-1.924c-0.011-1.066,0.867-1.949,1.937-1.95c1.051,0,1.896,0.836,1.923,1.9
		C83.947,14.654,83.077,15.554,82.014,15.563z"/>
</g>
<g>
	<path fill-rule="evenodd" clip-rule="evenodd" fill="#1A1A1A" d="M13.826,34.313c-0.512-0.393-1.162-0.352-1.737-0.552
		c-5.643-1.97-9.083-5.855-10.026-11.77c-1.257-7.88,4.145-14.99,11.714-16.473c6.525-1.279,13.451,2.555,16.002,8.868
		c3.44,8.512-1.57,17.877-10.562,19.741c-1.122,0.232-1.75-0.222-1.853-1.366c-0.083-0.928-0.119-1.86-0.219-2.785
		c-0.038-0.345,0.133-0.541,0.376-0.591c0.274-0.057,0.312,0.258,0.331,0.449c0.091,0.927,0.151,1.856,0.23,2.785
		c0.064,0.758,0.223,0.875,0.946,0.726c6.281-1.304,10.867-6.677,11.087-12.99c0.225-6.453-4.048-12.247-10.292-13.954
		C12.093,4.288,4.008,9.546,2.766,17.495C1.66,24.58,5.692,31.023,12.543,33.039c2.176,0.641,2.025,0.429,2.046-1.389
		c0.006-0.525,0.073-1.049,0.104-1.573c0.023-0.396,0.132-0.8,0.424-1.037c0.629-0.514,0.415-0.824-0.125-1.217
		c-0.713-0.521-1.375-1.112-2.059-1.672c-1.067-0.875-1.625-1.995-1.552-3.381c0.155-2.91,0.336-5.819,0.507-8.729
		c0.07-1.192,0.163-2.383,0.201-3.577c0.016-0.5,0.136-0.734,0.694-0.716c1.029,0.035,1.479,0.448,1.481,1.492
		c0.004,2.486,0.001,4.972,0.003,7.458c0,0.191-0.012,0.387,0.026,0.571c0.047,0.225,0.188,0.399,0.447,0.376
		c0.213-0.019,0.348-0.162,0.377-0.371c0.026-0.188,0.023-0.381,0.023-0.572c0.001-2.486-0.002-4.972,0.004-7.458
		c0.001-0.855,0.409-1.412,1.051-1.478c0.779-0.081,1.334,0.479,1.339,1.402c0.011,2.461-0.006,4.924,0.014,7.386
		c0.003,0.403-0.223,1.078,0.466,1.06c0.606-0.017,0.409-0.657,0.412-1.049c0.016-2.438,0.003-4.876,0.011-7.314
		c0.003-1.093,0.527-1.547,1.62-1.498c0.374,0.017,0.487,0.157,0.507,0.514c0.121,2.099,0.267,4.196,0.395,6.294
		c0.121,1.979,0.195,3.962,0.354,5.938c0.127,1.568-0.415,2.792-1.628,3.764c-1.157,0.926-2.288,1.884-3.444,2.812
		c-0.586,0.47-0.861,1.05-0.835,1.804c0.018,0.523-0.065,1.052-0.05,1.576c0.026,0.865-0.271,1.515-1.102,1.86
		C14.113,34.313,13.969,34.313,13.826,34.313z M13.543,15.272c0-1.314,0-2.629,0-3.943c0-0.319,0.008-0.703-0.405-0.712
		c-0.454-0.01-0.286,0.416-0.303,0.662c-0.098,1.453-0.18,2.907-0.256,4.361c-0.128,2.48-0.259,4.961-0.367,7.442
		c-0.044,1.021,0.393,1.854,1.158,2.513c0.852,0.731,1.729,1.435,2.567,2.182c0.329,0.294,0.542,0.243,0.849-0.017
		c0.874-0.743,1.78-1.447,2.659-2.186c0.859-0.721,1.291-1.659,1.226-2.778c-0.176-3.029-0.378-6.055-0.572-9.082
		c-0.057-0.882-0.119-1.763-0.191-2.644c-0.015-0.174,0.032-0.425-0.231-0.46c-0.252-0.033-0.403,0.141-0.456,0.368
		c-0.042,0.183-0.043,0.378-0.044,0.569c-0.003,1.314-0.001,2.629-0.001,3.943c0,1.267,0.003,2.534-0.006,3.8
		c-0.004,0.533-0.276,0.906-0.766,1.106c-0.412,0.168-0.795,0.1-1.131-0.201c-0.371-0.333-0.447-0.762-0.445-1.236
		c0.007-2.318,0.003-4.637,0.002-6.955c0-0.311,0.01-0.623-0.018-0.931c-0.022-0.253-0.138-0.48-0.438-0.47
		c-0.291,0.01-0.406,0.225-0.428,0.485c-0.018,0.214-0.016,0.43-0.016,0.645c-0.001,2.438,0.01,4.876-0.007,7.313
		c-0.006,0.899-0.469,1.429-1.168,1.435c-0.698,0.005-1.205-0.606-1.209-1.481C13.54,17.758,13.544,16.516,13.543,15.272z"/>
	<path fill-rule="evenodd" clip-rule="evenodd" fill="#1A1A1A" d="M63.088,19.425c1.355,0.54,1.729,1.588,1.673,2.849
		c-0.068,1.573-1.012,2.582-2.596,2.707c-2.19,0.175-4.39,0.055-6.586,0.074c-0.585,0.006-0.775-0.28-0.771-0.847
		c0.017-2.961,0.016-5.921,0.001-8.881c-0.004-0.578,0.188-0.951,0.791-0.941c2.05,0.034,4.104-0.142,6.151,0.103
		c1.076,0.129,2,0.495,2.368,1.643C64.508,17.345,64.173,18.468,63.088,19.425z M59.278,23.396c0.001-0.019,0.001-0.037,0.001-0.057
		c0.762,0,1.531,0.073,2.282-0.02c0.828-0.101,1.124-0.615,1.074-1.564c-0.043-0.84-0.388-1.292-1.191-1.329
		c-1.165-0.055-2.335-0.039-3.502-0.007c-0.611,0.016-0.962,0.362-0.95,1.013c0.009,0.501,0.025,1.003-0.007,1.503
		c-0.025,0.4,0.151,0.48,0.504,0.467C58.085,23.38,58.683,23.396,59.278,23.396z M59.084,18.751c0.001,0.01,0.001,0.02,0.001,0.03
		c0.62,0,1.244,0.038,1.862-0.009c0.812-0.062,1.157-0.494,1.165-1.34c0.006-0.867-0.294-1.256-1.123-1.365
		c-1.095-0.144-2.198-0.006-3.294-0.074c-0.565-0.035-0.78,0.138-0.709,0.71c0.086,0.678-0.301,1.593,0.16,1.979
		C57.538,19.011,58.419,18.751,59.084,18.751z"/>
	<path fill-rule="evenodd" clip-rule="evenodd" fill="#1A1A1A" d="M92.269,25.003c-0.746,0-1.344-0.02-1.938,0.008
		c-0.365,0.018-0.49-0.208-0.631-0.467c-0.572-1.046-1.166-2.079-1.721-3.132c-0.189-0.358-0.402-0.545-0.828-0.517
		c-0.596,0.039-1.195-0.009-1.789,0.034c-0.779,0.059-1.057,0.371-1.07,1.145c-0.014,0.789-0.002,1.576-0.004,2.365
		c0,0.143,0.043,0.379-0.021,0.415c-0.568,0.315-1.191,0.107-1.791,0.135c-0.393,0.018-0.34-0.323-0.342-0.58
		c-0.002-2.364,0-4.729,0-7.094c0-0.693-0.008-1.386,0.004-2.078c0.006-0.441,0.148-0.858,0.664-0.855
		c2.217,0.014,4.441-0.2,6.648,0.125c1.584,0.233,2.35,1.086,2.537,2.64c0.191,1.607-0.393,2.782-1.768,3.396
		c-0.41,0.183-0.336,0.336-0.166,0.626C90.774,22.396,91.479,23.633,92.269,25.003z M86.481,15.971c0-0.002,0-0.004,0-0.006
		c-0.572,0-1.146,0.017-1.719-0.007c-0.359-0.015-0.516,0.078-0.504,0.473c0.029,0.812,0.018,1.624,0.006,2.436
		c-0.006,0.313,0.053,0.488,0.424,0.482c1.219-0.021,2.438,0.021,3.654-0.033c1.076-0.048,1.477-0.561,1.465-1.703
		c-0.012-1.116-0.436-1.583-1.535-1.637C87.679,15.947,87.079,15.971,86.481,15.971z"/>
	<path fill-rule="evenodd" clip-rule="evenodd" fill="#1A1A1A" d="M69.014,19.719c0-1.458-0.005-2.917,0.003-4.375
		c0.005-0.835,0.14-0.979,0.952-0.982c2.558-0.008,5.114,0.003,7.673-0.011c0.428-0.002,0.537,0.073,0.369,0.514
		c-0.42,1.091-0.398,1.099-1.598,1.099c-1.553,0-3.106,0.018-4.66-0.011c-0.451-0.009-0.581,0.126-0.553,0.563
		c0.036,0.571,0.043,1.149-0.002,1.72c-0.038,0.477,0.163,0.546,0.577,0.54c1.386-0.023,2.773,0,4.159-0.015
		c0.385-0.004,0.504,0.048,0.338,0.47c-0.449,1.139-0.428,1.146-1.67,1.148c-0.765,0.001-1.531-0.018-2.294,0.021
		c-0.85,0.044-1.091,0.327-1.1,1.162c-0.019,1.794-0.019,1.794,1.745,1.794c1.553,0,3.107,0.015,4.66-0.009
		c0.482-0.008,0.562,0.098,0.377,0.555c-0.441,1.093-0.42,1.102-1.611,1.102c-2.151-0.001-4.303-0.018-6.454,0.01
		c-0.681,0.009-0.937-0.238-0.922-0.922C69.037,22.635,69.015,21.177,69.014,19.719z"/>
	<path fill-rule="evenodd" clip-rule="evenodd" fill="#1A1A1A" d="M50.425,18.05c-0.001,0.908,0.008,1.816-0.002,2.723
		c-0.026,2.611-1.431,4.144-4.032,4.351c-1.021,0.081-2.045,0.072-3.064-0.125c-1.705-0.331-2.869-1.46-3.152-3.177
		c-0.223-1.352-0.074-2.718-0.106-4.078c-0.015-0.597-0.003-1.194-0.003-1.792c0-1.628,0-1.604,1.62-1.609
		c0.506-0.001,0.574,0.188,0.568,0.621c-0.021,1.72-0.01,3.439-0.007,5.159c0.003,2.664,0.883,3.488,3.522,3.302
		c1.657-0.115,2.434-0.898,2.472-2.618c0.042-1.887,0.04-3.774,0.002-5.661c-0.012-0.612,0.118-0.831,0.778-0.807
		c1.404,0.052,1.405,0.013,1.405,1.416C50.426,16.521,50.426,17.286,50.425,18.05z"/>
	<path fill-rule="evenodd" clip-rule="evenodd" fill="#1A1A1A" d="M100.919,19.658c0-1.601,0.018-3.202-0.01-4.802
		c-0.008-0.477,0.145-0.61,0.611-0.605c2.174,0.021,4.35,0.026,6.521-0.002c0.514-0.007,0.58,0.213,0.605,0.635
		c0.025,0.478-0.234,0.479-0.578,0.478c-1.791-0.008-3.584,0.013-5.375-0.014c-0.5-0.007-0.67,0.139-0.645,0.644
		c0.039,0.787,0.033,1.577,0.002,2.364c-0.021,0.504,0.166,0.665,0.664,0.656c1.457-0.024,2.912-0.007,4.371-0.01
		c0.346-0.001,0.674-0.043,0.658,0.488c-0.014,0.503-0.342,0.426-0.645,0.426c-1.434,0.003-2.867,0.021-4.299-0.008
		c-0.545-0.011-0.781,0.126-0.754,0.717c0.043,0.93,0.037,1.864,0.002,2.794c-0.021,0.519,0.18,0.649,0.666,0.644
		c1.863-0.021,3.727-0.01,5.59-0.009c0.33,0,0.664-0.075,0.645,0.481c-0.016,0.505-0.236,0.575-0.666,0.573
		c-2.244-0.016-4.49-0.021-6.736,0.004c-0.512,0.006-0.648-0.158-0.639-0.653C100.937,22.859,100.919,21.258,100.919,19.658z"/>
	<path fill-rule="evenodd" clip-rule="evenodd" fill="#1A1A1A" d="M113.112,25.023c1.086-2.361,2.152-4.678,3.221-6.993
		c0.502-1.083,1.029-2.156,1.504-3.251c0.186-0.428,0.449-0.53,0.881-0.532c0.434-0.002,0.684,0.104,0.877,0.53
		c1.457,3.219,2.947,6.424,4.412,9.641c0.09,0.196,0.408,0.546,0.064,0.635s-0.881,0.301-1.137-0.25
		c-0.311-0.67-0.613-1.347-0.887-2.033c-0.145-0.363-0.361-0.506-0.756-0.502c-1.744,0.016-3.486,0.016-5.232,0
		c-0.396-0.004-0.609,0.147-0.75,0.51c-0.188,0.489-0.479,0.945-0.615,1.447C114.466,25.046,113.974,25.272,113.112,25.023z
		 M118.681,15.164c-0.895,2.02-1.727,3.91-2.572,5.793c-0.17,0.379-0.027,0.438,0.32,0.436c1.479-0.012,2.957-0.01,4.434-0.002
		c0.354,0.002,0.488-0.087,0.328-0.457C120.368,19.06,119.558,17.182,118.681,15.164z"/>
	<path fill-rule="evenodd" clip-rule="evenodd" fill="#1A1A1A" d="M144.485,14.093c1.027-0.025,1.932,0.147,2.826,0.434
		c0.467,0.149,0.48,0.392,0.379,0.807c-0.135,0.545-0.438,0.219-0.648,0.156c-1.227-0.365-2.461-0.573-3.734-0.275
		c-0.375,0.087-0.734,0.21-1.037,0.456c-0.975,0.79-0.883,1.968,0.207,2.59c0.588,0.335,1.248,0.469,1.889,0.66
		c0.639,0.19,1.289,0.359,1.908,0.602c1.076,0.419,1.83,1.126,1.844,2.379c0.014,1.351-0.566,2.392-1.807,2.915
		c-1.889,0.797-3.771,0.577-5.613-0.258c-0.496-0.225-0.326-0.602-0.217-0.908c0.16-0.453,0.426-0.07,0.611,0.007
		c1.332,0.55,2.691,0.81,4.123,0.485c0.328-0.074,0.635-0.201,0.92-0.383c1.27-0.817,1.217-2.427-0.109-3.127
		c-0.748-0.394-1.58-0.534-2.375-0.787c-0.521-0.166-1.051-0.325-1.551-0.543c-0.975-0.425-1.592-1.136-1.574-2.256
		c0.016-1.163,0.58-1.995,1.611-2.506C142.903,14.161,143.724,14.033,144.485,14.093z"/>
	<path fill-rule="evenodd" clip-rule="evenodd" fill="#1A1A1A" d="M131.013,20.207c0-1.362-0.039-2.726,0.018-4.086
		c0.027-0.662-0.197-0.81-0.809-0.776c-0.906,0.05-1.816-0.002-2.725,0.021c-0.377,0.009-0.521-0.115-0.479-0.492
		c0.035-0.301-0.053-0.623,0.451-0.62c2.773,0.016,5.545,0.013,8.318,0.001c0.463-0.002,0.393,0.292,0.406,0.575
		c0.016,0.321-0.014,0.547-0.445,0.536c-0.979-0.025-1.961,0.023-2.938-0.02c-0.549-0.024-0.682,0.162-0.678,0.689
		c0.025,2.796,0.006,5.592,0.018,8.389c0.002,0.442-0.033,0.718-0.604,0.695c-0.471-0.019-0.545-0.206-0.541-0.611
		C131.024,23.075,131.013,21.641,131.013,20.207z"/>
</g>
</svg>
